# xmcd
#
# Track frame offsets:
#	225
#	17312
#	41230
#	60110
#	83785
#	102535
#	120790
#	137777
#	156412
#	181062
#	200965
#	223687
#	242610
#	259177
#	278885
#	300915
#	316515
#
# Disc length: 4464
#
# Revision: 1
# Processed by: cddbd v1.5.1PL0 Copyright (c) Steve Scherf et al.
# Submitted via: dBpowerAMP V4.0
# Normalized: r0:DSETVAR1,TDELIM( - )
#
DISCID=df116d11
DTITLE=Various Artist - Clubtracks Vol 8 1996
DYEAR=1996
DGENRE=R&B
TTITLE0=Peter Andre - Flava
TTITLE1=Blackstreet - Don't Leave Me
TTITLE2=702 - Steelo
TTITLE3=Johnny Gill - Let's Get The Mood Right
TTITLE4=Az Yet - Last Night
TTITLE5=Assorted Phlavors - Patience
TTITLE6=Alfonzo Hunter - Just The Way (Playas Play)
TTITLE7=Color Me Bad - Sexual Capacity
TTITLE8=The Braxtons - What Does It Take
TTITLE9=Mint Condition - What Kind Of Man Would  Be
TTITLE10=Montell Jordan - Bounce 2 This
TTITLE11=Changing Faces - I Got Somebody Else
TTITLE12=Kino Watson - Game Recognize Game
TTITLE13=Aaliyah - One In A Million
TTITLE14=112 - Throw It All Aw
TTITLE15=Faiht Evans - I Just Can't
TTITLE16=The Isley Brothers and Angela Winbush - Floating On Your Love
EXTD=
EXTT0=
EXTT1=
EXTT2=
EXTT3=
EXTT4=
EXTT5=
EXTT6=
EXTT7=
EXTT8=
EXTT9=
EXTT10=
EXTT11=
EXTT12=
EXTT13=
EXTT14=
EXTT15=
EXTT16=
PLAYORDER=
